<?xml version="1.0" encoding="utf-8"?>
<!-- Generator: Adobe Illustrator 16.0.0, SVG Export Plug-In . SVG Version: 6.00 Build 0)  -->
<!DOCTYPE svg PUBLIC "-//W3C//DTD SVG 1.1//EN" "http://www.w3.org/Graphics/SVG/1.1/DTD/svg11.dtd">
<svg version="1.1" id="Layer_1" xmlns="http://www.w3.org/2000/svg" xmlns:xlink="http://www.w3.org/1999/xlink" x="0px" y="0px"
	 width="600px" height="600px" viewBox="0 0 600 600" enable-background="new 0 0 600 600" xml:space="preserve">
<g>
	<path fill="#D26147" d="M-1383.398,422.094c-5.389-1.102-9.798-6.504-9.798-12.004V182.157c0-5.5,4.409-10.901,9.798-12.003
		l136.178-27.846c5.389-1.102,14.205-1.102,19.594,0l136.179,27.846c5.388,1.102,9.797,6.503,9.797,12.003V410.09
		c0,5.5-4.409,10.902-9.797,12.004l-136.179,27.848c-5.389,1.102-14.205,1.102-19.594,0L-1383.398,422.094z"/>
</g>
<g>
	<path fill="#602721" d="M-1207.151,361.994h-14.127v-38.973h-32.503v38.973h-14.126v-38.973h-73.704v-14.127
		c71.973,0,73.666-68.416,73.704-71.33l14.126,0.076v71.254h32.503V237.64l0,0h14.127c0.014,2.897,1.132,71.254,73.697,71.254
		v14.127h-73.697V361.994z M-1207.151,308.895h21.977c-9.691-6.57-16.789-14.812-21.977-23.331V308.895z M-1290.185,308.895h22.277
		v-23.793C-1273.15,293.785-1280.338,302.203-1290.185,308.895z"/>
</g>
<g>
	<path fill="#FFFBEB" d="M-657.436,422.094c-5.388-1.103-9.797-6.504-9.797-12.004V182.157c0-5.5,4.409-10.901,9.797-12.003
		l136.179-27.846c5.388-1.102,14.206-1.102,19.594,0l136.179,27.846c5.389,1.102,9.797,6.503,9.797,12.003V410.09
		c0,5.5-4.409,10.901-9.797,12.004l-136.179,27.848c-5.388,1.103-14.206,1.103-19.594,0L-657.436,422.094z"/>
</g>
<g>
	<path fill="#D26147" d="M-481.188,361.994h-14.127v-38.973h-32.503v38.973h-14.126v-38.973h-73.704v-14.127
		c71.973,0,73.666-68.416,73.704-71.33l14.126,0.076v71.254h32.503V237.64l0,0h14.127c0.014,2.897,1.132,71.254,73.697,71.254
		v14.127h-73.697V361.994z M-481.188,308.895h21.977c-9.691-6.57-16.789-14.812-21.977-23.331V308.895z M-564.221,308.895h22.277
		v-23.793C-547.187,293.785-554.374,302.203-564.221,308.895z"/>
</g>
<g>
	<path fill="#602721" d="M149.524,422.094c-5.388-1.103-9.797-6.504-9.797-12.004V182.157c0-5.5,4.409-10.901,9.797-12.003
		l136.179-27.846c5.389-1.102,14.205-1.102,19.594,0l136.179,27.846c5.388,1.102,9.797,6.503,9.797,12.003V410.09
		c0,5.5-4.409,10.901-9.797,12.004l-136.179,27.848c-5.388,1.103-14.206,1.103-19.594,0L149.524,422.094z"/>
</g>
<g>
	<path fill="#FFFBEB" d="M325.772,361.994h-14.127v-38.973h-32.503v38.973h-14.126v-38.973h-73.704v-14.127
		c71.973,0,73.666-68.416,73.704-71.33l14.126,0.076v71.254h32.503V237.64l0,0h14.127c0.014,2.897,1.132,71.254,73.697,71.254
		v14.127h-73.697V361.994z M325.772,308.895h21.977c-9.691-6.57-16.789-14.812-21.977-23.331V308.895z M242.739,308.895h22.277
		v-23.793C259.773,293.785,252.586,302.203,242.739,308.895z"/>
</g>
</svg>
